<svg xmlns="http://www.w3.org/2000/svg" xmlns:v="https://svgstorm.com" viewBox="0 0 1353 697" width="130" height="62">
    <g fill="None" fill-opacity="0.0" stroke="None" stroke-opacity="1.00" stroke-width="0.3"><path d="
M 0.00 697.00
L 1353.00 697.00
L 1353.00 0.00
L 0.00 0.00
L 0.00 697.00
M 374.00 68.00
C 417.10 72.17 466.95 81.47 504.23 102.77 C 541.51 124.07 567.76 143.59 594.77 177.23 C 621.78 210.87 639.12 244.89 649.93 287.07 C 660.73 329.26 659.45 390.97 646.02 432.02 C 632.60 473.08 615.50 505.70 586.75 537.75 C 558.00 569.80 530.78 589.41 492.31 608.31 C 453.83 627.20 399.73 638.20 355.00 637.00 C 310.27 635.80 262.60 622.31 224.77 602.23 C 186.94 582.15 161.51 561.48 133.75 528.25 C 105.98 495.03 90.42 460.01 79.01 417.99 C 67.60 375.97 68.81 313.68 82.78 272.78 C 96.74 231.87 112.56 198.56 141.92 166.92 C 171.28 135.27 197.88 114.21 236.69 96.69 C 275.51 79.18 328.59 63.61 374.00 68.00
M 934.00 279.00
C 932.37 293.44 926.45 306.74 924.00 321.00
C 907.67 321.00 891.33 321.00 875.00 321.00
C 875.81 311.16 879.04 292.61 867.92 287.08 C 856.80 281.55 845.12 290.05 839.70 299.70 C 834.28 309.34 836.43 324.65 847.70 329.30 C 858.96 333.96 870.24 336.60 881.68 339.32 C 893.12 342.04 901.60 345.66 910.25 353.75 C 918.89 361.85 922.30 372.38 923.00 384.00 C 923.70 395.63 921.84 411.18 915.70 420.70 C 909.55 430.21 903.56 436.48 893.77 441.77 C 883.98 447.06 873.43 451.22 861.93 452.93 C 850.43 454.64 832.86 456.49 821.00 456.00 C 809.14 455.51 793.22 454.25 782.99 451.01 C 772.77 447.76 757.98 445.41 758.78 433.78 C 759.58 422.15 766.29 409.84 767.00 398.00
C 784.33 398.00 801.67 398.00 819.00 398.00
C 809.52 418.65 829.46 442.68 848.23 430.23 C 867.00 417.78 862.45 393.94 844.92 386.08 C 827.40 378.21 809.59 377.07 793.75 365.25 C 777.92 353.42 775.33 329.25 781.78 311.78 C 788.23 294.30 801.14 283.74 818.07 276.07 C 835.01 268.41 857.24 264.01 877.00 264.00 C 896.76 263.99 917.44 268.71 934.00 279.00
M 1073.00 365.00
C 1082.79 394.68 1096.22 423.29 1106.00 453.00
C 1084.33 453.00 1062.67 453.00 1041.00 453.00
C 1038.29 443.93 1035.89 434.24 1032.68 425.32 C 1029.47 416.40 1027.18 405.99 1023.68 397.32 C 1020.18 388.65 1019.99 375.43 1012.00 372.00
C 1009.95 380.43 1009.32 390.47 1006.67 398.67 C 1004.03 406.87 1004.28 417.36 1001.02 425.02 C 997.76 432.68 1000.37 444.99 995.22 451.22 C 990.08 457.45 973.75 451.15 965.00 453.00 C 956.25 454.85 941.31 451.62 932.00 453.00
C 944.46 390.87 958.66 329.18 971.00 267.00
C 1000.24 265.45 1035.76 268.63 1064.02 267.98 C 1092.29 267.32 1114.46 284.46 1114.00 312.00 C 1113.54 339.54 1097.90 357.59 1073.00 365.00
M 1280.00 267.00
C 1279.57 274.55 1276.44 281.42 1276.00 289.00
C 1256.00 289.00 1236.00 289.00 1216.00 289.00
C 1211.12 306.76 1208.27 325.05 1204.00 343.00
C 1220.67 343.00 1237.33 343.00 1254.00 343.00
C 1252.43 350.67 1251.51 358.56 1249.00 366.00
C 1232.33 366.00 1215.67 366.00 1199.00 366.00
C 1193.66 395.15 1186.23 423.79 1181.00 453.00
C 1160.00 453.00 1139.00 453.00 1118.00 453.00
C 1119.43 442.21 1121.71 431.59 1123.99 420.99 C 1126.27 410.40 1128.71 399.56 1130.98 388.98 C 1133.25 378.39 1135.40 367.35 1137.93 356.93 C 1140.45 346.50 1141.58 335.53 1144.33 325.33 C 1147.08 315.13 1148.19 303.13 1151.33 293.33 C 1154.46 283.52 1151.50 266.88 1164.00 267.00 C 1176.50 267.12 1189.28 266.94 1202.00 267.00 C 1214.72 267.06 1228.15 266.97 1241.00 267.00 C 1253.85 267.03 1267.11 266.98 1280.00 267.00 Z"></path>
    </g>
    <g fill="None" fill-opacity="0.0" stroke="#186F65" stroke-opacity="1.00" stroke-width="0.3"><path d="
M 374.00 68.00
C 328.59 63.61 275.51 79.18 236.69 96.69 C 197.88 114.21 171.28 135.27 141.92 166.92 C 112.56 198.56 96.74 231.87 82.78 272.78 C 68.81 313.68 67.60 375.97 79.01 417.99 C 90.42 460.01 105.98 495.03 133.75 528.25 C 161.51 561.48 186.94 582.15 224.77 602.23 C 262.60 622.31 310.27 635.80 355.00 637.00 C 399.73 638.20 453.83 627.20 492.31 608.31 C 530.78 589.41 558.00 569.80 586.75 537.75 C 615.50 505.70 632.60 473.08 646.02 432.02 C 659.45 390.97 660.73 329.26 649.93 287.07 C 639.12 244.89 621.78 210.87 594.77 177.23 C 567.76 143.59 541.51 124.07 504.23 102.77 C 466.95 81.47 417.10 72.17 374.00 68.00
M 363.00 331.00
C 345.14 309.61 324.39 298.91 308.75 275.25 C 293.10 251.60 299.43 214.93 323.25 196.25 C 347.07 177.57 381.71 178.50 405.25 196.75 C 428.78 215.00 435.43 252.65 419.08 276.08 C 402.73 299.50 382.83 312.29 363.00 331.00
M 254.00 290.00
C 265.27 290.33 279.13 294.66 288.70 301.31 C 298.26 307.95 304.29 315.74 313.25 323.75 C 322.21 331.76 326.53 338.40 336.75 346.25 C 346.96 354.11 331.31 362.53 324.25 370.25 C 317.18 377.97 308.76 385.11 300.75 392.75 C 292.75 400.40 283.59 408.40 272.32 411.32 C 261.06 414.24 244.37 416.19 232.99 412.01 C 221.62 407.83 212.58 402.74 204.25 393.75 C 195.92 384.77 191.80 374.82 189.02 362.98 C 186.25 351.14 189.42 334.55 195.31 324.31 C 201.19 314.06 206.95 306.41 217.25 300.25 C 227.55 294.08 241.69 289.64 254.00 290.00
M 386.00 353.00
C 412.71 329.77 427.94 299.97 464.00 292.00 C 500.06 284.03 539.72 313.09 540.00 352.00 C 540.28 390.91 501.47 420.65 465.00 414.00 C 428.53 407.35 413.85 374.07 386.00 353.00
M 363.00 374.00
C 382.71 392.61 402.24 405.18 418.75 428.25 C 435.27 451.31 429.15 489.46 405.92 507.92 C 382.68 526.38 347.62 527.58 323.77 509.23 C 299.92 490.88 292.80 454.20 308.31 430.31 C 323.81 406.41 345.41 395.29 363.00 374.00 Z"></path>
    </g>
    <g fill="None" fill-opacity="0.0" stroke="#FDFEFE" stroke-opacity="1.00" stroke-width="0.3"><path d="
M 363.00 331.00
C 382.83 312.29 402.73 299.50 419.08 276.08 C 435.43 252.65 428.78 215.00 405.25 196.75 C 381.71 178.50 347.07 177.57 323.25 196.25 C 299.43 214.93 293.10 251.60 308.75 275.25 C 324.39 298.91 345.14 309.61 363.00 331.00 Z"></path>
    </g>
    <g fill="None" fill-opacity="0.0" stroke="#45474B" stroke-opacity="1.00" stroke-width="0.3"><path d="
M 934.00 279.00
C 917.44 268.71 896.76 263.99 877.00 264.00 C 857.24 264.01 835.01 268.41 818.07 276.07 C 801.14 283.74 788.23 294.30 781.78 311.78 C 775.33 329.25 777.92 353.42 793.75 365.25 C 809.59 377.07 827.40 378.21 844.92 386.08 C 862.45 393.94 867.00 417.78 848.23 430.23 C 829.46 442.68 809.52 418.65 819.00 398.00
C 801.67 398.00 784.33 398.00 767.00 398.00
C 766.29 409.84 759.58 422.15 758.78 433.78 C 757.98 445.41 772.77 447.76 782.99 451.01 C 793.22 454.25 809.14 455.51 821.00 456.00 C 832.86 456.49 850.43 454.64 861.93 452.93 C 873.43 451.22 883.98 447.06 893.77 441.77 C 903.56 436.48 909.55 430.21 915.70 420.70 C 921.84 411.18 923.70 395.63 923.00 384.00 C 922.30 372.38 918.89 361.85 910.25 353.75 C 901.60 345.66 893.12 342.04 881.68 339.32 C 870.24 336.60 858.96 333.96 847.70 329.30 C 836.43 324.65 834.28 309.34 839.70 299.70 C 845.12 290.05 856.80 281.55 867.92 287.08 C 879.04 292.61 875.81 311.16 875.00 321.00
C 891.33 321.00 907.67 321.00 924.00 321.00
C 926.45 306.74 932.37 293.44 934.00 279.00 Z"></path>
    </g>
    <g fill="None" fill-opacity="0.0" stroke="#45474B" stroke-opacity="1.00" stroke-width="0.3"><path d="
M 1073.00 365.00
C 1097.90 357.59 1113.54 339.54 1114.00 312.00 C 1114.46 284.46 1092.29 267.32 1064.02 267.98 C 1035.76 268.63 1000.24 265.45 971.00 267.00
C 958.66 329.18 944.46 390.87 932.00 453.00
C 941.31 451.62 956.25 454.85 965.00 453.00 C 973.75 451.15 990.08 457.45 995.22 451.22 C 1000.37 444.99 997.76 432.68 1001.02 425.02 C 1004.28 417.36 1004.03 406.87 1006.67 398.67 C 1009.32 390.47 1009.95 380.43 1012.00 372.00
C 1019.99 375.43 1020.18 388.65 1023.68 397.32 C 1027.18 405.99 1029.47 416.40 1032.68 425.32 C 1035.89 434.24 1038.29 443.93 1041.00 453.00
C 1062.67 453.00 1084.33 453.00 1106.00 453.00
C 1096.22 423.29 1082.79 394.68 1073.00 365.00
M 1016.00 353.00
C 1017.80 343.22 1021.13 333.55 1022.78 323.78 C 1024.43 314.01 1028.01 303.76 1028.99 293.99 C 1029.97 284.22 1047.80 283.49 1054.25 290.75 C 1060.69 298.02 1057.87 312.17 1056.22 321.22 C 1054.57 330.28 1051.28 338.27 1045.23 346.23 C 1039.18 354.19 1025.49 353.64 1016.00 353.00 Z"></path>
    </g>
    <g fill="None" fill-opacity="0.0" stroke="#45474B" stroke-opacity="1.00" stroke-width="0.3"><path d="
M 1280.00 267.00
C 1267.11 266.98 1253.85 267.03 1241.00 267.00 C 1228.15 266.97 1214.72 267.06 1202.00 267.00 C 1189.28 266.94 1176.50 267.12 1164.00 267.00 C 1151.50 266.88 1154.46 283.52 1151.33 293.33 C 1148.19 303.13 1147.08 315.13 1144.33 325.33 C 1141.58 335.53 1140.45 346.50 1137.93 356.93 C 1135.40 367.35 1133.25 378.39 1130.98 388.98 C 1128.71 399.56 1126.27 410.40 1123.99 420.99 C 1121.71 431.59 1119.43 442.21 1118.00 453.00
C 1139.00 453.00 1160.00 453.00 1181.00 453.00
C 1186.23 423.79 1193.66 395.15 1199.00 366.00
C 1215.67 366.00 1232.33 366.00 1249.00 366.00
C 1251.51 358.56 1252.43 350.67 1254.00 343.00
C 1237.33 343.00 1220.67 343.00 1204.00 343.00
C 1208.27 325.05 1211.12 306.76 1216.00 289.00
C 1236.00 289.00 1256.00 289.00 1276.00 289.00
C 1276.44 281.42 1279.57 274.55 1280.00 267.00 Z"></path>
    </g>
    <g fill="None" fill-opacity="0.0" stroke="#FCFCFC" stroke-opacity="1.00" stroke-width="0.3"><path d="
M 1016.00 353.00
C 1025.49 353.64 1039.18 354.19 1045.23 346.23 C 1051.28 338.27 1054.57 330.28 1056.22 321.22 C 1057.87 312.17 1060.69 298.02 1054.25 290.75 C 1047.80 283.49 1029.97 284.22 1028.99 293.99 C 1028.01 303.76 1024.43 314.01 1022.78 323.78 C 1021.13 333.55 1017.80 343.22 1016.00 353.00 Z"></path>
    </g>
    <g fill="None" fill-opacity="0.0" stroke="#FDFEFE" stroke-opacity="1.00" stroke-width="0.3"><path d="
M 254.00 290.00
C 241.69 289.64 227.55 294.08 217.25 300.25 C 206.95 306.41 201.19 314.06 195.31 324.31 C 189.42 334.55 186.25 351.14 189.02 362.98 C 191.80 374.82 195.92 384.77 204.25 393.75 C 212.58 402.74 221.62 407.83 232.99 412.01 C 244.37 416.19 261.06 414.24 272.32 411.32 C 283.59 408.40 292.75 400.40 300.75 392.75 C 308.76 385.11 317.18 377.97 324.25 370.25 C 331.31 362.53 346.96 354.11 336.75 346.25 C 326.53 338.40 322.21 331.76 313.25 323.75 C 304.29 315.74 298.26 307.95 288.70 301.31 C 279.13 294.66 265.27 290.33 254.00 290.00 Z"></path>
    </g>
    <g fill="None" fill-opacity="0.0" stroke="None" stroke-opacity="1.00" stroke-width="0.3"><path d="
M 386.00 353.00
C 413.85 374.07 428.53 407.35 465.00 414.00 C 501.47 420.65 540.28 390.91 540.00 352.00 C 539.72 313.09 500.06 284.03 464.00 292.00 C 427.94 299.97 412.71 329.77 386.00 353.00 Z"></path>
    </g>
    <g fill="None" fill-opacity="0.0" stroke="#FDFEFE" stroke-opacity="1.00" stroke-width="0.3"><path d="
M 363.00 374.00
C 345.41 395.29 323.81 406.41 308.31 430.31 C 292.80 454.20 299.92 490.88 323.77 509.23 C 347.62 527.58 382.68 526.38 405.92 507.92 C 429.15 489.46 435.27 451.31 418.75 428.25 C 402.24 405.18 382.71 392.61 363.00 374.00 Z"></path>
    </g>
    <g fill="None" fill-opacity="1.00" stroke="None">
        <path d="
M 0.00 697.00
L 1353.00 697.00
L 1353.00 0.00
L 0.00 0.00
L 0.00 697.00
M 374.00 68.00
C 417.10 72.17 466.95 81.47 504.23 102.77 C 541.51 124.07 567.76 143.59 594.77 177.23 C 621.78 210.87 639.12 244.89 649.93 287.07 C 660.73 329.26 659.45 390.97 646.02 432.02 C 632.60 473.08 615.50 505.70 586.75 537.75 C 558.00 569.80 530.78 589.41 492.31 608.31 C 453.83 627.20 399.73 638.20 355.00 637.00 C 310.27 635.80 262.60 622.31 224.77 602.23 C 186.94 582.15 161.51 561.48 133.75 528.25 C 105.98 495.03 90.42 460.01 79.01 417.99 C 67.60 375.97 68.81 313.68 82.78 272.78 C 96.74 231.87 112.56 198.56 141.92 166.92 C 171.28 135.27 197.88 114.21 236.69 96.69 C 275.51 79.18 328.59 63.61 374.00 68.00
M 934.00 279.00
C 932.37 293.44 926.45 306.74 924.00 321.00
C 907.67 321.00 891.33 321.00 875.00 321.00
C 875.81 311.16 879.04 292.61 867.92 287.08 C 856.80 281.55 845.12 290.05 839.70 299.70 C 834.28 309.34 836.43 324.65 847.70 329.30 C 858.96 333.96 870.24 336.60 881.68 339.32 C 893.12 342.04 901.60 345.66 910.25 353.75 C 918.89 361.85 922.30 372.38 923.00 384.00 C 923.70 395.63 921.84 411.18 915.70 420.70 C 909.55 430.21 903.56 436.48 893.77 441.77 C 883.98 447.06 873.43 451.22 861.93 452.93 C 850.43 454.64 832.86 456.49 821.00 456.00 C 809.14 455.51 793.22 454.25 782.99 451.01 C 772.77 447.76 757.98 445.41 758.78 433.78 C 759.58 422.15 766.29 409.84 767.00 398.00
C 784.33 398.00 801.67 398.00 819.00 398.00
C 809.52 418.65 829.46 442.68 848.23 430.23 C 867.00 417.78 862.45 393.94 844.92 386.08 C 827.40 378.21 809.59 377.07 793.75 365.25 C 777.92 353.42 775.33 329.25 781.78 311.78 C 788.23 294.30 801.14 283.74 818.07 276.07 C 835.01 268.41 857.24 264.01 877.00 264.00 C 896.76 263.99 917.44 268.71 934.00 279.00
M 1073.00 365.00
C 1082.79 394.68 1096.22 423.29 1106.00 453.00
C 1084.33 453.00 1062.67 453.00 1041.00 453.00
C 1038.29 443.93 1035.89 434.24 1032.68 425.32 C 1029.47 416.40 1027.18 405.99 1023.68 397.32 C 1020.18 388.65 1019.99 375.43 1012.00 372.00
C 1009.95 380.43 1009.32 390.47 1006.67 398.67 C 1004.03 406.87 1004.28 417.36 1001.02 425.02 C 997.76 432.68 1000.37 444.99 995.22 451.22 C 990.08 457.45 973.75 451.15 965.00 453.00 C 956.25 454.85 941.31 451.62 932.00 453.00
C 944.46 390.87 958.66 329.18 971.00 267.00
C 1000.24 265.45 1035.76 268.63 1064.02 267.98 C 1092.29 267.32 1114.46 284.46 1114.00 312.00 C 1113.54 339.54 1097.90 357.59 1073.00 365.00
M 1280.00 267.00
C 1279.57 274.55 1276.44 281.42 1276.00 289.00
C 1256.00 289.00 1236.00 289.00 1216.00 289.00
C 1211.12 306.76 1208.27 325.05 1204.00 343.00
C 1220.67 343.00 1237.33 343.00 1254.00 343.00
C 1252.43 350.67 1251.51 358.56 1249.00 366.00
C 1232.33 366.00 1215.67 366.00 1199.00 366.00
C 1193.66 395.15 1186.23 423.79 1181.00 453.00
C 1160.00 453.00 1139.00 453.00 1118.00 453.00
C 1119.43 442.21 1121.71 431.59 1123.99 420.99 C 1126.27 410.40 1128.71 399.56 1130.98 388.98 C 1133.25 378.39 1135.40 367.35 1137.93 356.93 C 1140.45 346.50 1141.58 335.53 1144.33 325.33 C 1147.08 315.13 1148.19 303.13 1151.33 293.33 C 1154.46 283.52 1151.50 266.88 1164.00 267.00 C 1176.50 267.12 1189.28 266.94 1202.00 267.00 C 1214.72 267.06 1228.15 266.97 1241.00 267.00 C 1253.85 267.03 1267.11 266.98 1280.00 267.00 Z"></path>
    </g>
    <g fill="#186F65" fill-opacity="1.00" stroke="None">
        <path d="
M 374.00 68.00
C 328.59 63.61 275.51 79.18 236.69 96.69 C 197.88 114.21 171.28 135.27 141.92 166.92 C 112.56 198.56 96.74 231.87 82.78 272.78 C 68.81 313.68 67.60 375.97 79.01 417.99 C 90.42 460.01 105.98 495.03 133.75 528.25 C 161.51 561.48 186.94 582.15 224.77 602.23 C 262.60 622.31 310.27 635.80 355.00 637.00 C 399.73 638.20 453.83 627.20 492.31 608.31 C 530.78 589.41 558.00 569.80 586.75 537.75 C 615.50 505.70 632.60 473.08 646.02 432.02 C 659.45 390.97 660.73 329.26 649.93 287.07 C 639.12 244.89 621.78 210.87 594.77 177.23 C 567.76 143.59 541.51 124.07 504.23 102.77 C 466.95 81.47 417.10 72.17 374.00 68.00
M 363.00 331.00
C 345.14 309.61 324.39 298.91 308.75 275.25 C 293.10 251.60 299.43 214.93 323.25 196.25 C 347.07 177.57 381.71 178.50 405.25 196.75 C 428.78 215.00 435.43 252.65 419.08 276.08 C 402.73 299.50 382.83 312.29 363.00 331.00
M 254.00 290.00
C 265.27 290.33 279.13 294.66 288.70 301.31 C 298.26 307.95 304.29 315.74 313.25 323.75 C 322.21 331.76 326.53 338.40 336.75 346.25 C 346.96 354.11 331.31 362.53 324.25 370.25 C 317.18 377.97 308.76 385.11 300.75 392.75 C 292.75 400.40 283.59 408.40 272.32 411.32 C 261.06 414.24 244.37 416.19 232.99 412.01 C 221.62 407.83 212.58 402.74 204.25 393.75 C 195.92 384.77 191.80 374.82 189.02 362.98 C 186.25 351.14 189.42 334.55 195.31 324.31 C 201.19 314.06 206.95 306.41 217.25 300.25 C 227.55 294.08 241.69 289.64 254.00 290.00
M 386.00 353.00
C 412.71 329.77 427.94 299.97 464.00 292.00 C 500.06 284.03 539.72 313.09 540.00 352.00 C 540.28 390.91 501.47 420.65 465.00 414.00 C 428.53 407.35 413.85 374.07 386.00 353.00
M 363.00 374.00
C 382.71 392.61 402.24 405.18 418.75 428.25 C 435.27 451.31 429.15 489.46 405.92 507.92 C 382.68 526.38 347.62 527.58 323.77 509.23 C 299.92 490.88 292.80 454.20 308.31 430.31 C 323.81 406.41 345.41 395.29 363.00 374.00 Z"></path>
    </g>
    <g fill="None" fill-opacity="1.00" stroke="None">
        <path d="
M 363.00 331.00
C 382.83 312.29 402.73 299.50 419.08 276.08 C 435.43 252.65 428.78 215.00 405.25 196.75 C 381.71 178.50 347.07 177.57 323.25 196.25 C 299.43 214.93 293.10 251.60 308.75 275.25 C 324.39 298.91 345.14 309.61 363.00 331.00 Z"></path>
    </g>
    <g fill="#45474B" fill-opacity="1.00" stroke="None">
        <path d="
M 934.00 279.00
C 917.44 268.71 896.76 263.99 877.00 264.00 C 857.24 264.01 835.01 268.41 818.07 276.07 C 801.14 283.74 788.23 294.30 781.78 311.78 C 775.33 329.25 777.92 353.42 793.75 365.25 C 809.59 377.07 827.40 378.21 844.92 386.08 C 862.45 393.94 867.00 417.78 848.23 430.23 C 829.46 442.68 809.52 418.65 819.00 398.00
C 801.67 398.00 784.33 398.00 767.00 398.00
C 766.29 409.84 759.58 422.15 758.78 433.78 C 757.98 445.41 772.77 447.76 782.99 451.01 C 793.22 454.25 809.14 455.51 821.00 456.00 C 832.86 456.49 850.43 454.64 861.93 452.93 C 873.43 451.22 883.98 447.06 893.77 441.77 C 903.56 436.48 909.55 430.21 915.70 420.70 C 921.84 411.18 923.70 395.63 923.00 384.00 C 922.30 372.38 918.89 361.85 910.25 353.75 C 901.60 345.66 893.12 342.04 881.68 339.32 C 870.24 336.60 858.96 333.96 847.70 329.30 C 836.43 324.65 834.28 309.34 839.70 299.70 C 845.12 290.05 856.80 281.55 867.92 287.08 C 879.04 292.61 875.81 311.16 875.00 321.00
C 891.33 321.00 907.67 321.00 924.00 321.00
C 926.45 306.74 932.37 293.44 934.00 279.00 Z"></path>
    </g>
    <g fill="#45474B" fill-opacity="1.00" stroke="None">
        <path d="
M 1073.00 365.00
C 1097.90 357.59 1113.54 339.54 1114.00 312.00 C 1114.46 284.46 1092.29 267.32 1064.02 267.98 C 1035.76 268.63 1000.24 265.45 971.00 267.00
C 958.66 329.18 944.46 390.87 932.00 453.00
C 941.31 451.62 956.25 454.85 965.00 453.00 C 973.75 451.15 990.08 457.45 995.22 451.22 C 1000.37 444.99 997.76 432.68 1001.02 425.02 C 1004.28 417.36 1004.03 406.87 1006.67 398.67 C 1009.32 390.47 1009.95 380.43 1012.00 372.00
C 1019.99 375.43 1020.18 388.65 1023.68 397.32 C 1027.18 405.99 1029.47 416.40 1032.68 425.32 C 1035.89 434.24 1038.29 443.93 1041.00 453.00
C 1062.67 453.00 1084.33 453.00 1106.00 453.00
C 1096.22 423.29 1082.79 394.68 1073.00 365.00
M 1016.00 353.00
C 1017.80 343.22 1021.13 333.55 1022.78 323.78 C 1024.43 314.01 1028.01 303.76 1028.99 293.99 C 1029.97 284.22 1047.80 283.49 1054.25 290.75 C 1060.69 298.02 1057.87 312.17 1056.22 321.22 C 1054.57 330.28 1051.28 338.27 1045.23 346.23 C 1039.18 354.19 1025.49 353.64 1016.00 353.00 Z"></path>
    </g>
    <g fill="#45474B" fill-opacity="1.00" stroke="None">
        <path d="
M 1280.00 267.00
C 1267.11 266.98 1253.85 267.03 1241.00 267.00 C 1228.15 266.97 1214.72 267.06 1202.00 267.00 C 1189.28 266.94 1176.50 267.12 1164.00 267.00 C 1151.50 266.88 1154.46 283.52 1151.33 293.33 C 1148.19 303.13 1147.08 315.13 1144.33 325.33 C 1141.58 335.53 1140.45 346.50 1137.93 356.93 C 1135.40 367.35 1133.25 378.39 1130.98 388.98 C 1128.71 399.56 1126.27 410.40 1123.99 420.99 C 1121.71 431.59 1119.43 442.21 1118.00 453.00
C 1139.00 453.00 1160.00 453.00 1181.00 453.00
C 1186.23 423.79 1193.66 395.15 1199.00 366.00
C 1215.67 366.00 1232.33 366.00 1249.00 366.00
C 1251.51 358.56 1252.43 350.67 1254.00 343.00
C 1237.33 343.00 1220.67 343.00 1204.00 343.00
C 1208.27 325.05 1211.12 306.76 1216.00 289.00
C 1236.00 289.00 1256.00 289.00 1276.00 289.00
C 1276.44 281.42 1279.57 274.55 1280.00 267.00 Z"></path>
    </g>
    <g fill="None" fill-opacity="1.00" stroke="None">
        <path d="
M 1016.00 353.00
C 1025.49 353.64 1039.18 354.19 1045.23 346.23 C 1051.28 338.27 1054.57 330.28 1056.22 321.22 C 1057.87 312.17 1060.69 298.02 1054.25 290.75 C 1047.80 283.49 1029.97 284.22 1028.99 293.99 C 1028.01 303.76 1024.43 314.01 1022.78 323.78 C 1021.13 333.55 1017.80 343.22 1016.00 353.00 Z"></path>
    </g>
    <g fill="None" fill-opacity="1.00" stroke="None">
        <path d="
M 254.00 290.00
C 241.69 289.64 227.55 294.08 217.25 300.25 C 206.95 306.41 201.19 314.06 195.31 324.31 C 189.42 334.55 186.25 351.14 189.02 362.98 C 191.80 374.82 195.92 384.77 204.25 393.75 C 212.58 402.74 221.62 407.83 232.99 412.01 C 244.37 416.19 261.06 414.24 272.32 411.32 C 283.59 408.40 292.75 400.40 300.75 392.75 C 308.76 385.11 317.18 377.97 324.25 370.25 C 331.31 362.53 346.96 354.11 336.75 346.25 C 326.53 338.40 322.21 331.76 313.25 323.75 C 304.29 315.74 298.26 307.95 288.70 301.31 C 279.13 294.66 265.27 290.33 254.00 290.00 Z"></path>
    </g>
    <g fill="None" fill-opacity="1.00" stroke="None">
        <path d="
M 386.00 353.00
C 413.85 374.07 428.53 407.35 465.00 414.00 C 501.47 420.65 540.28 390.91 540.00 352.00 C 539.72 313.09 500.06 284.03 464.00 292.00 C 427.94 299.97 412.71 329.77 386.00 353.00 Z"></path>
    </g>
    <g fill="None" fill-opacity="1.00" stroke="None">
        <path d="
M 363.00 374.00
C 345.41 395.29 323.81 406.41 308.31 430.31 C 292.80 454.20 299.92 490.88 323.77 509.23 C 347.62 527.58 382.68 526.38 405.92 507.92 C 429.15 489.46 435.27 451.31 418.75 428.25 C 402.24 405.18 382.71 392.61 363.00 374.00 Z"></path>
    </g>
</svg>
