<svg class="icon" version="1.1" xmlns="http://www.w3.org/2000/svg" xmlns:xlink="http://www.w3.org/1999/xlink" width="32px" height="32px" viewBox="0,0,256,256" fill="#186f65">
    <g fill="None" fill-rule="nonzero" stroke="none" stroke-width="1" stroke-linecap="butt" stroke-linejoin="miter" stroke-miterlimit="10" stroke-dasharray="" stroke-dashoffset="0" font-family="none" font-weight="none" font-size="none" text-anchor="none" style="mix-blend-mode: normal">
        <path d="M0,256v-256h256v256z" id="bgRectangle"></path>
    </g>
    <g fill="#186f65" fill-rule="nonzero" stroke="none" stroke-width="1" stroke-linecap="butt" stroke-linejoin="miter" stroke-miterlimit="10" stroke-dasharray="" stroke-dashoffset="0" font-family="none" font-weight="none" font-size="none" text-anchor="none" style="mix-blend-mode: normal">
        <g transform="translate(0.002,0.002) scale(4,4)">
            <g id="Layer_1" font-family="Inter, apple-system, BlinkMacSystemFont, &quot;Helvetica Neue&quot;, &quot;Segoe UI&quot;, &quot;Fira Sans&quot;, Roboto, Oxygen, Ubuntu, &quot;Droid Sans&quot;, Arial, sans-serif" font-weight="400" font-size="16" text-anchor="start"></g>
            <g id="icon">
                <g>
                    <g>
                        <path d="M50.888,23.419h-37.776c-2.815,0 -5.106,-2.168 -5.106,-4.832c0,-2.665 2.291,-4.833 5.106,-4.833h37.776c2.815,0 5.105,2.168 5.105,4.833c0.001,2.664 -2.289,4.832 -5.105,4.832zM13.112,15.754c-1.713,0 -3.106,1.271 -3.106,2.833c0,1.562 1.394,2.832 3.106,2.832h37.776c1.712,0 3.105,-1.271 3.105,-2.832c0,-1.561 -1.394,-2.833 -3.105,-2.833z"></path>
                    </g>
                </g>
                <g>
                    <g>
                        <path d="M45.96,36.832h-32.848c-2.815,0 -5.106,-2.168 -5.106,-4.832c0,-2.664 2.291,-4.832 5.106,-4.832h32.848c2.815,0 5.106,2.168 5.106,4.832c0,2.664 -2.29,4.832 -5.106,4.832zM13.112,29.168c-1.713,0 -3.106,1.271 -3.106,2.832c0,1.561 1.394,2.832 3.106,2.832h32.848c1.713,0 3.106,-1.271 3.106,-2.832c0,-1.561 -1.394,-2.832 -3.106,-2.832z"></path>
                    </g>
                </g>
                <g>
                    <g>
                        <path d="M40.212,50.245h-27.1c-2.815,0 -5.106,-2.168 -5.106,-4.832c0,-2.664 2.291,-4.832 5.106,-4.832h27.101c2.815,0 5.105,2.168 5.105,4.832c0,2.664 -2.29,4.832 -5.106,4.832zM13.112,42.581c-1.713,0 -3.106,1.271 -3.106,2.832c0,1.561 1.394,2.832 3.106,2.832h27.101c1.712,0 3.105,-1.271 3.105,-2.832c0,-1.561 -1.394,-2.832 -3.105,-2.832z"></path>
                    </g>
                </g>
            </g>
        </g>
    </g>
</svg>
